<svg width="337" height="21" viewBox="0 0 337 21" fill="none" xmlns="http://www.w3.org/2000/svg">
<path d="M2.8267 16H0.497159L5.73153 1.45455H8.26705L13.5014 16H11.1719L7.05966 4.09659H6.94602L2.8267 16ZM3.21733 10.304H10.7741V12.1506H3.21733V10.304ZM15.4315 16V5.09091H17.484V6.82386H17.5977C17.7965 6.23674 18.1469 5.77509 18.6488 5.43892C19.1554 5.09801 19.7283 4.92756 20.3675 4.92756C20.5001 4.92756 20.6564 4.93229 20.8363 4.94176C21.021 4.95123 21.1654 4.96307 21.2695 4.97727V7.00852C21.1843 6.98485 21.0328 6.95881 20.815 6.9304C20.5972 6.89725 20.3794 6.88068 20.1616 6.88068C19.6597 6.88068 19.2122 6.98722 18.8192 7.20028C18.431 7.40862 18.1232 7.69981 17.896 8.07386C17.6687 8.44318 17.555 8.86458 17.555 9.33807V16H15.4315ZM30.0817 20.0909V14.3026H29.9538C29.826 14.5346 29.6413 14.7997 29.3999 15.098C29.1631 15.3963 28.8364 15.6567 28.4197 15.8793C28.0031 16.1018 27.4633 16.2131 26.8004 16.2131C25.9197 16.2131 25.1338 15.9882 24.4425 15.5384C23.7559 15.0838 23.2161 14.4375 22.8232 13.5994C22.4349 12.7566 22.2408 11.7457 22.2408 10.5668C22.2408 9.38778 22.4373 8.37926 22.8303 7.54119C23.228 6.70312 23.7725 6.06155 24.4638 5.61648C25.1551 5.1714 25.9387 4.94886 26.8146 4.94886C27.4917 4.94886 28.0362 5.0625 28.4482 5.28977C28.8648 5.51231 29.1868 5.77273 29.4141 6.07102C29.6461 6.36932 29.826 6.6321 29.9538 6.85938H30.1314V5.09091H32.2053V20.0909H30.0817ZM27.2692 14.402C27.88 14.402 28.3961 14.241 28.8175 13.919C29.2436 13.5923 29.5656 13.1402 29.7834 12.5625C30.0059 11.9848 30.1172 11.3125 30.1172 10.5455C30.1172 9.78788 30.0083 9.125 29.7905 8.55682C29.5727 7.98864 29.2531 7.54593 28.8317 7.22869C28.4103 6.91146 27.8894 6.75284 27.2692 6.75284C26.63 6.75284 26.0973 6.91856 25.6712 7.25C25.245 7.58144 24.9231 8.03362 24.7053 8.60653C24.4922 9.17945 24.3857 9.82576 24.3857 10.5455C24.3857 11.2746 24.4946 11.9304 24.7124 12.5128C24.9302 13.0952 25.2521 13.5568 25.6783 13.8977C26.1091 14.2339 26.6394 14.402 27.2692 14.402ZM41.9709 11.4759V5.09091H44.1016V16H42.0135V14.1108H41.8999C41.6489 14.6932 41.2464 15.1785 40.6925 15.5668C40.1432 15.9503 39.459 16.142 38.6399 16.142C37.9392 16.142 37.3189 15.9882 36.7791 15.6804C36.2441 15.3679 35.8227 14.9062 35.5149 14.2955C35.2119 13.6847 35.0604 12.9295 35.0604 12.0298V5.09091H37.1839V11.7741C37.1839 12.5175 37.3899 13.1094 37.8018 13.5497C38.2138 13.9901 38.7488 14.2102 39.407 14.2102C39.8047 14.2102 40.2 14.1108 40.593 13.9119C40.9908 13.7131 41.3198 13.4124 41.5803 13.0099C41.8454 12.6075 41.9756 12.0961 41.9709 11.4759ZM46.9549 16V5.09091H49.0785V16H46.9549ZM48.0273 3.40767C47.658 3.40767 47.3408 3.28456 47.0756 3.03835C46.8152 2.7874 46.685 2.48911 46.685 2.14347C46.685 1.79309 46.8152 1.49479 47.0756 1.24858C47.3408 0.997632 47.658 0.872159 48.0273 0.872159C48.3967 0.872159 48.7115 0.997632 48.9719 1.24858C49.2371 1.49479 49.3697 1.79309 49.3697 2.14347C49.3697 2.48911 49.2371 2.7874 48.9719 3.03835C48.7115 3.28456 48.3967 3.40767 48.0273 3.40767ZM57.0277 5.09091V6.79545H51.0689V5.09091H57.0277ZM52.6669 2.47727H54.7905V12.7969C54.7905 13.2088 54.852 13.5189 54.9751 13.7273C55.0982 13.9309 55.2569 14.0705 55.451 14.1463C55.6499 14.2173 55.8653 14.2528 56.0973 14.2528C56.2678 14.2528 56.4169 14.241 56.5447 14.2173C56.6726 14.1937 56.772 14.1747 56.843 14.1605L57.2266 15.9148C57.1035 15.9621 56.9283 16.0095 56.701 16.0568C56.4737 16.1089 56.1896 16.1373 55.8487 16.142C55.29 16.1515 54.7692 16.0521 54.2862 15.8438C53.8033 15.6354 53.4126 15.3134 53.1143 14.8778C52.8161 14.4422 52.6669 13.8954 52.6669 13.2372V2.47727ZM63.9613 16.2202C62.8865 16.2202 61.9608 15.9905 61.1843 15.5312C60.4125 15.0672 59.8159 14.4162 59.3945 13.5781C58.9779 12.7353 58.7695 11.7481 58.7695 10.6165C58.7695 9.49905 58.9779 8.5142 59.3945 7.66193C59.8159 6.80966 60.4031 6.14441 61.1559 5.66619C61.9135 5.18797 62.7989 4.94886 63.8121 4.94886C64.4277 4.94886 65.0243 5.05066 65.6019 5.25426C66.1796 5.45786 66.698 5.77746 67.1573 6.21307C67.6166 6.64867 67.9788 7.21449 68.244 7.91051C68.5091 8.6018 68.6417 9.44223 68.6417 10.4318V11.1847H59.9698V9.59375H66.5607C66.5607 9.03504 66.4471 8.54025 66.2198 8.10938C65.9925 7.67377 65.6729 7.33049 65.261 7.07955C64.8538 6.8286 64.3756 6.70312 63.8263 6.70312C63.2298 6.70312 62.7089 6.84991 62.2638 7.14347C61.8235 7.43229 61.4826 7.81108 61.2411 8.27983C61.0044 8.74384 60.886 9.24811 60.886 9.79261V11.0355C60.886 11.7647 61.0138 12.3849 61.2695 12.8963C61.5299 13.4077 61.8922 13.7983 62.3562 14.0682C62.8202 14.3333 63.3623 14.4659 63.9826 14.4659C64.3851 14.4659 64.752 14.4091 65.0835 14.2955C65.4149 14.1771 65.7013 14.0019 65.9428 13.7699C66.1843 13.5379 66.369 13.2514 66.4968 12.9105L68.5067 13.2727C68.3458 13.8646 68.0569 14.383 67.6403 14.8281C67.2283 15.2685 66.7099 15.6117 66.0849 15.858C65.4646 16.0994 64.7567 16.2202 63.9613 16.2202ZM76.0902 5.09091V6.79545H70.1314V5.09091H76.0902ZM71.7294 2.47727H73.853V12.7969C73.853 13.2088 73.9145 13.5189 74.0376 13.7273C74.1607 13.9309 74.3194 14.0705 74.5135 14.1463C74.7124 14.2173 74.9278 14.2528 75.1598 14.2528C75.3303 14.2528 75.4794 14.241 75.6072 14.2173C75.7351 14.1937 75.8345 14.1747 75.9055 14.1605L76.2891 15.9148C76.166 15.9621 75.9908 16.0095 75.7635 16.0568C75.5362 16.1089 75.2521 16.1373 74.9112 16.142C74.3525 16.1515 73.8317 16.0521 73.3487 15.8438C72.8658 15.6354 72.4751 15.3134 72.1768 14.8778C71.8786 14.4422 71.7294 13.8954 71.7294 13.2372V2.47727ZM85.3498 11.4759V5.09091H87.4805V16H85.3924V14.1108H85.2788C85.0278 14.6932 84.6254 15.1785 84.0714 15.5668C83.5221 15.9503 82.8379 16.142 82.0188 16.142C81.3181 16.142 80.6978 15.9882 80.158 15.6804C79.623 15.3679 79.2016 14.9062 78.8938 14.2955C78.5908 13.6847 78.4393 12.9295 78.4393 12.0298V5.09091H80.5629V11.7741C80.5629 12.5175 80.7688 13.1094 81.1808 13.5497C81.5927 13.9901 82.1277 14.2102 82.7859 14.2102C83.1836 14.2102 83.579 14.1108 83.9719 13.9119C84.3697 13.7131 84.6987 13.4124 84.9592 13.0099C85.2243 12.6075 85.3545 12.0961 85.3498 11.4759ZM90.3338 16V5.09091H92.3864V6.82386H92.5C92.6989 6.23674 93.0492 5.77509 93.5511 5.43892C94.0578 5.09801 94.6307 4.92756 95.2699 4.92756C95.4025 4.92756 95.5587 4.93229 95.7386 4.94176C95.9233 4.95123 96.0677 4.96307 96.1719 4.97727V7.00852C96.0866 6.98485 95.9351 6.95881 95.7173 6.9304C95.4995 6.89725 95.2817 6.88068 95.0639 6.88068C94.562 6.88068 94.1146 6.98722 93.7216 7.20028C93.3333 7.40862 93.0256 7.69981 92.7983 8.07386C92.571 8.44318 92.4574 8.86458 92.4574 9.33807V16H90.3338ZM101.087 16.2415C100.395 16.2415 99.7704 16.1136 99.2116 15.858C98.6529 15.5975 98.2102 15.2211 97.8835 14.7287C97.5616 14.2363 97.4006 13.6326 97.4006 12.9176C97.4006 12.3021 97.5189 11.7955 97.7557 11.3977C97.9924 11 98.312 10.6851 98.7145 10.4531C99.117 10.2211 99.5668 10.0459 100.064 9.92756C100.561 9.80919 101.068 9.71922 101.584 9.65767C102.237 9.58191 102.768 9.52036 103.175 9.47301C103.582 9.42093 103.878 9.33807 104.062 9.22443C104.247 9.1108 104.339 8.92614 104.339 8.67045V8.62074C104.339 8.00047 104.164 7.51989 103.814 7.17898C103.468 6.83807 102.952 6.66761 102.266 6.66761C101.551 6.66761 100.987 6.82623 100.575 7.14347C100.168 7.45597 99.8864 7.80398 99.7301 8.1875L97.7344 7.73295C97.9711 7.07008 98.3168 6.53504 98.7713 6.12784C99.2306 5.71591 99.7585 5.41761 100.355 5.23295C100.952 5.04356 101.579 4.94886 102.237 4.94886C102.673 4.94886 103.134 5.00095 103.622 5.10511C104.115 5.20455 104.574 5.3892 105 5.65909C105.431 5.92898 105.784 6.31487 106.058 6.81676C106.333 7.31392 106.47 7.96023 106.47 8.75568V16H104.396V14.5085H104.311C104.174 14.7831 103.968 15.053 103.693 15.3182C103.419 15.5833 103.066 15.8035 102.635 15.9787C102.204 16.1539 101.688 16.2415 101.087 16.2415ZM101.548 14.5369C102.135 14.5369 102.637 14.4209 103.054 14.1889C103.475 13.9569 103.795 13.6539 104.013 13.2798C104.235 12.901 104.347 12.4962 104.347 12.0653V10.6591C104.271 10.7348 104.124 10.8059 103.906 10.8722C103.693 10.9337 103.449 10.9882 103.175 11.0355C102.9 11.0781 102.633 11.1184 102.372 11.1562C102.112 11.1894 101.894 11.2178 101.719 11.2415C101.307 11.2936 100.93 11.3812 100.589 11.5043C100.253 11.6274 99.9834 11.8049 99.7798 12.0369C99.581 12.2642 99.4815 12.5672 99.4815 12.946C99.4815 13.4716 99.6757 13.8693 100.064 14.1392C100.452 14.4044 100.947 14.5369 101.548 14.5369ZM114.592 16V5.09091H116.644V6.82386H116.758C116.957 6.23674 117.307 5.77509 117.809 5.43892C118.316 5.09801 118.888 4.92756 119.528 4.92756C119.66 4.92756 119.817 4.93229 119.996 4.94176C120.181 4.95123 120.326 4.96307 120.43 4.97727V7.00852C120.344 6.98485 120.193 6.95881 119.975 6.9304C119.757 6.89725 119.54 6.88068 119.322 6.88068C118.82 6.88068 118.372 6.98722 117.979 7.20028C117.591 7.40862 117.283 7.69981 117.056 8.07386C116.829 8.44318 116.715 8.86458 116.715 9.33807V16H114.592ZM126.578 16.2202C125.504 16.2202 124.578 15.9905 123.801 15.5312C123.03 15.0672 122.433 14.4162 122.012 13.5781C121.595 12.7353 121.387 11.7481 121.387 10.6165C121.387 9.49905 121.595 8.5142 122.012 7.66193C122.433 6.80966 123.02 6.14441 123.773 5.66619C124.531 5.18797 125.416 4.94886 126.429 4.94886C127.045 4.94886 127.641 5.05066 128.219 5.25426C128.797 5.45786 129.315 5.77746 129.775 6.21307C130.234 6.64867 130.596 7.21449 130.861 7.91051C131.126 8.6018 131.259 9.44223 131.259 10.4318V11.1847H122.587V9.59375H129.178C129.178 9.03504 129.064 8.54025 128.837 8.10938C128.61 7.67377 128.29 7.33049 127.878 7.07955C127.471 6.8286 126.993 6.70312 126.444 6.70312C125.847 6.70312 125.326 6.84991 124.881 7.14347C124.441 7.43229 124.1 7.81108 123.858 8.27983C123.622 8.74384 123.503 9.24811 123.503 9.79261V11.0355C123.503 11.7647 123.631 12.3849 123.887 12.8963C124.147 13.4077 124.509 13.7983 124.973 14.0682C125.437 14.3333 125.98 14.4659 126.6 14.4659C127.002 14.4659 127.369 14.4091 127.701 14.2955C128.032 14.1771 128.319 14.0019 128.56 13.7699C128.801 13.5379 128.986 13.2514 129.114 12.9105L131.124 13.2727C130.963 13.8646 130.674 14.383 130.257 14.8281C129.846 15.2685 129.327 15.6117 128.702 15.858C128.082 16.0994 127.374 16.2202 126.578 16.2202ZM141.79 7.75426L139.865 8.09517C139.785 7.84896 139.657 7.61458 139.482 7.39205C139.311 7.16951 139.079 6.98722 138.786 6.84517C138.492 6.70312 138.125 6.6321 137.685 6.6321C137.083 6.6321 136.581 6.76705 136.179 7.03693C135.777 7.30208 135.575 7.64536 135.575 8.06676C135.575 8.43134 135.71 8.72491 135.98 8.94744C136.25 9.16998 136.686 9.35227 137.287 9.49432L139.02 9.89205C140.024 10.1241 140.772 10.4815 141.264 10.9645C141.757 11.4474 142.003 12.0748 142.003 12.8466C142.003 13.5 141.813 14.0824 141.435 14.5938C141.061 15.1004 140.537 15.4981 139.865 15.7869C139.197 16.0758 138.423 16.2202 137.543 16.2202C136.321 16.2202 135.324 15.9598 134.553 15.4389C133.781 14.9134 133.307 14.1676 133.132 13.2017L135.185 12.8892C135.313 13.4242 135.575 13.8291 135.973 14.1037C136.371 14.3736 136.889 14.5085 137.528 14.5085C138.224 14.5085 138.781 14.3641 139.197 14.0753C139.614 13.7817 139.822 13.4242 139.822 13.0028C139.822 12.6619 139.695 12.3755 139.439 12.1435C139.188 11.9115 138.802 11.7363 138.281 11.6179L136.435 11.2131C135.417 10.9811 134.664 10.6117 134.176 10.1051C133.693 9.59848 133.452 8.95691 133.452 8.1804C133.452 7.53646 133.632 6.97301 133.991 6.49006C134.351 6.0071 134.848 5.63068 135.483 5.3608C136.117 5.08617 136.844 4.94886 137.663 4.94886C138.842 4.94886 139.77 5.20455 140.447 5.71591C141.125 6.22254 141.572 6.90199 141.79 7.75426ZM144.338 16V5.09091H146.461V16H144.338ZM145.41 3.40767C145.041 3.40767 144.724 3.28456 144.458 3.03835C144.198 2.7874 144.068 2.48911 144.068 2.14347C144.068 1.79309 144.198 1.49479 144.458 1.24858C144.724 0.997632 145.041 0.872159 145.41 0.872159C145.779 0.872159 146.094 0.997632 146.355 1.24858C146.62 1.49479 146.752 1.79309 146.752 2.14347C146.752 2.48911 146.62 2.7874 146.355 3.03835C146.094 3.28456 145.779 3.40767 145.41 3.40767ZM153.402 16.2131C152.521 16.2131 151.735 15.9882 151.044 15.5384C150.357 15.0838 149.818 14.4375 149.425 13.5994C149.036 12.7566 148.842 11.7457 148.842 10.5668C148.842 9.38778 149.039 8.37926 149.432 7.54119C149.83 6.70312 150.374 6.06155 151.065 5.61648C151.757 5.1714 152.54 4.94886 153.416 4.94886C154.093 4.94886 154.638 5.0625 155.05 5.28977C155.466 5.51231 155.788 5.77273 156.016 6.07102C156.248 6.36932 156.428 6.6321 156.555 6.85938H156.683V1.45455H158.807V16H156.733V14.3026H156.555C156.428 14.5346 156.243 14.7997 156.001 15.098C155.765 15.3963 155.438 15.6567 155.021 15.8793C154.605 16.1018 154.065 16.2131 153.402 16.2131ZM153.871 14.402C154.482 14.402 154.998 14.241 155.419 13.919C155.845 13.5923 156.167 13.1402 156.385 12.5625C156.607 11.9848 156.719 11.3125 156.719 10.5455C156.719 9.78788 156.61 9.125 156.392 8.55682C156.174 7.98864 155.855 7.54593 155.433 7.22869C155.012 6.91146 154.491 6.75284 153.871 6.75284C153.232 6.75284 152.699 6.91856 152.273 7.25C151.847 7.58144 151.525 8.03362 151.307 8.60653C151.094 9.17945 150.987 9.82576 150.987 10.5455C150.987 11.2746 151.096 11.9304 151.314 12.5128C151.532 13.0952 151.854 13.5568 152.28 13.8977C152.711 14.2339 153.241 14.402 153.871 14.402ZM166.539 16.2202C165.465 16.2202 164.539 15.9905 163.762 15.5312C162.991 15.0672 162.394 14.4162 161.973 13.5781C161.556 12.7353 161.348 11.7481 161.348 10.6165C161.348 9.49905 161.556 8.5142 161.973 7.66193C162.394 6.80966 162.981 6.14441 163.734 5.66619C164.492 5.18797 165.377 4.94886 166.39 4.94886C167.006 4.94886 167.602 5.05066 168.18 5.25426C168.758 5.45786 169.276 5.77746 169.735 6.21307C170.195 6.64867 170.557 7.21449 170.822 7.91051C171.087 8.6018 171.22 9.44223 171.22 10.4318V11.1847H162.548V9.59375H169.139C169.139 9.03504 169.025 8.54025 168.798 8.10938C168.571 7.67377 168.251 7.33049 167.839 7.07955C167.432 6.8286 166.954 6.70312 166.404 6.70312C165.808 6.70312 165.287 6.84991 164.842 7.14347C164.402 7.43229 164.061 7.81108 163.819 8.27983C163.583 8.74384 163.464 9.24811 163.464 9.79261V11.0355C163.464 11.7647 163.592 12.3849 163.848 12.8963C164.108 13.4077 164.47 13.7983 164.934 14.0682C165.398 14.3333 165.94 14.4659 166.561 14.4659C166.963 14.4659 167.33 14.4091 167.662 14.2955C167.993 14.1771 168.279 14.0019 168.521 13.7699C168.762 13.5379 168.947 13.2514 169.075 12.9105L171.085 13.2727C170.924 13.8646 170.635 14.383 170.218 14.8281C169.806 15.2685 169.288 15.6117 168.663 15.858C168.043 16.0994 167.335 16.2202 166.539 16.2202ZM175.7 9.52273V16H173.576V5.09091H175.614V6.86648H175.749C176 6.28883 176.393 5.82481 176.928 5.47443C177.468 5.12405 178.147 4.94886 178.967 4.94886C179.71 4.94886 180.361 5.10511 180.92 5.41761C181.478 5.72538 181.912 6.18466 182.219 6.79545C182.527 7.40625 182.681 8.16146 182.681 9.06108V16H180.558V9.31676C180.558 8.52604 180.352 7.90814 179.94 7.46307C179.528 7.01326 178.962 6.78835 178.242 6.78835C177.75 6.78835 177.312 6.89489 176.928 7.10795C176.549 7.32102 176.249 7.63352 176.026 8.04545C175.808 8.45265 175.7 8.94508 175.7 9.52273ZM190.124 16.2202C189.068 16.2202 188.159 15.9811 187.397 15.5028C186.639 15.0199 186.057 14.3546 185.65 13.5071C185.243 12.6596 185.039 11.6889 185.039 10.5952C185.039 9.48722 185.247 8.50947 185.664 7.66193C186.081 6.80966 186.668 6.14441 187.425 5.66619C188.183 5.18797 189.076 4.94886 190.103 4.94886C190.932 4.94886 191.67 5.10275 192.319 5.41051C192.968 5.71354 193.491 6.13968 193.888 6.68892C194.291 7.23816 194.53 7.87973 194.606 8.61364H192.539C192.425 8.10227 192.165 7.66193 191.758 7.29261C191.355 6.9233 190.816 6.73864 190.138 6.73864C189.547 6.73864 189.028 6.89489 188.583 7.20739C188.143 7.51515 187.799 7.95549 187.553 8.52841C187.307 9.09659 187.184 9.76894 187.184 10.5455C187.184 11.3409 187.305 12.0275 187.546 12.6051C187.788 13.1828 188.129 13.6302 188.569 13.9474C189.014 14.2647 189.537 14.4233 190.138 14.4233C190.541 14.4233 190.906 14.3499 191.232 14.2031C191.564 14.0516 191.841 13.8362 192.063 13.5568C192.29 13.2775 192.449 12.9413 192.539 12.5483H194.606C194.53 13.2538 194.3 13.8835 193.917 14.4375C193.533 14.9915 193.02 15.4271 192.376 15.7443C191.737 16.0616 190.986 16.2202 190.124 16.2202ZM196.877 16V5.09091H199V16H196.877ZM197.949 3.40767C197.58 3.40767 197.263 3.28456 196.998 3.03835C196.737 2.7874 196.607 2.48911 196.607 2.14347C196.607 1.79309 196.737 1.49479 196.998 1.24858C197.263 0.997632 197.58 0.872159 197.949 0.872159C198.319 0.872159 198.633 0.997632 198.894 1.24858C199.159 1.49479 199.292 1.79309 199.292 2.14347C199.292 2.48911 199.159 2.7874 198.894 3.03835C198.633 3.28456 198.319 3.40767 197.949 3.40767ZM205.032 16.2415C204.341 16.2415 203.716 16.1136 203.157 15.858C202.598 15.5975 202.156 15.2211 201.829 14.7287C201.507 14.2363 201.346 13.6326 201.346 12.9176C201.346 12.3021 201.464 11.7955 201.701 11.3977C201.938 11 202.257 10.6851 202.66 10.4531C203.062 10.2211 203.512 10.0459 204.009 9.92756C204.506 9.80919 205.013 9.71922 205.529 9.65767C206.183 9.58191 206.713 9.52036 207.12 9.47301C207.527 9.42093 207.823 9.33807 208.008 9.22443C208.192 9.1108 208.285 8.92614 208.285 8.67045V8.62074C208.285 8.00047 208.11 7.51989 207.759 7.17898C207.414 6.83807 206.897 6.66761 206.211 6.66761C205.496 6.66761 204.933 6.82623 204.521 7.14347C204.113 7.45597 203.832 7.80398 203.675 8.1875L201.68 7.73295C201.916 7.07008 202.262 6.53504 202.717 6.12784C203.176 5.71591 203.704 5.41761 204.3 5.23295C204.897 5.04356 205.524 4.94886 206.183 4.94886C206.618 4.94886 207.08 5.00095 207.567 5.10511C208.06 5.20455 208.519 5.3892 208.945 5.65909C209.376 5.92898 209.729 6.31487 210.004 6.81676C210.278 7.31392 210.415 7.96023 210.415 8.75568V16H208.342V14.5085H208.256C208.119 14.7831 207.913 15.053 207.638 15.3182C207.364 15.5833 207.011 15.8035 206.58 15.9787C206.149 16.1539 205.633 16.2415 205.032 16.2415ZM205.494 14.5369C206.081 14.5369 206.583 14.4209 206.999 14.1889C207.421 13.9569 207.74 13.6539 207.958 13.2798C208.181 12.901 208.292 12.4962 208.292 12.0653V10.6591C208.216 10.7348 208.069 10.8059 207.852 10.8722C207.638 10.9337 207.395 10.9882 207.12 11.0355C206.845 11.0781 206.578 11.1184 206.317 11.1562C206.057 11.1894 205.839 11.2178 205.664 11.2415C205.252 11.2936 204.876 11.3812 204.535 11.5043C204.199 11.6274 203.929 11.8049 203.725 12.0369C203.526 12.2642 203.427 12.5672 203.427 12.946C203.427 13.4716 203.621 13.8693 204.009 14.1392C204.397 14.4044 204.892 14.5369 205.494 14.5369ZM215.368 1.45455V16H213.244V1.45455H215.368ZM228.219 16.2202C227.144 16.2202 226.219 15.9905 225.442 15.5312C224.67 15.0672 224.074 14.4162 223.652 13.5781C223.236 12.7353 223.027 11.7481 223.027 10.6165C223.027 9.49905 223.236 8.5142 223.652 7.66193C224.074 6.80966 224.661 6.14441 225.414 5.66619C226.171 5.18797 227.057 4.94886 228.07 4.94886C228.685 4.94886 229.282 5.05066 229.86 5.25426C230.437 5.45786 230.956 5.77746 231.415 6.21307C231.874 6.64867 232.237 7.21449 232.502 7.91051C232.767 8.6018 232.9 9.44223 232.9 10.4318V11.1847H224.228V9.59375H230.819C230.819 9.03504 230.705 8.54025 230.478 8.10938C230.25 7.67377 229.931 7.33049 229.519 7.07955C229.112 6.8286 228.633 6.70312 228.084 6.70312C227.488 6.70312 226.967 6.84991 226.522 7.14347C226.081 7.43229 225.74 7.81108 225.499 8.27983C225.262 8.74384 225.144 9.24811 225.144 9.79261V11.0355C225.144 11.7647 225.272 12.3849 225.527 12.8963C225.788 13.4077 226.15 13.7983 226.614 14.0682C227.078 14.3333 227.62 14.4659 228.24 14.4659C228.643 14.4659 229.01 14.4091 229.341 14.2955C229.673 14.1771 229.959 14.0019 230.201 13.7699C230.442 13.5379 230.627 13.2514 230.755 12.9105L232.765 13.2727C232.604 13.8646 232.315 14.383 231.898 14.8281C231.486 15.2685 230.968 15.6117 230.343 15.858C229.722 16.0994 229.015 16.2202 228.219 16.2202ZM245.144 16.2202C244.088 16.2202 243.179 15.9811 242.417 15.5028C241.659 15.0199 241.077 14.3546 240.669 13.5071C240.262 12.6596 240.059 11.6889 240.059 10.5952C240.059 9.48722 240.267 8.50947 240.684 7.66193C241.1 6.80966 241.687 6.14441 242.445 5.66619C243.203 5.18797 244.095 4.94886 245.123 4.94886C245.951 4.94886 246.69 5.10275 247.338 5.41051C247.987 5.71354 248.51 6.13968 248.908 6.68892C249.31 7.23816 249.55 7.87973 249.625 8.61364H247.559C247.445 8.10227 247.185 7.66193 246.777 7.29261C246.375 6.9233 245.835 6.73864 245.158 6.73864C244.566 6.73864 244.048 6.89489 243.603 7.20739C243.162 7.51515 242.819 7.95549 242.573 8.52841C242.327 9.09659 242.203 9.76894 242.203 10.5455C242.203 11.3409 242.324 12.0275 242.566 12.6051C242.807 13.1828 243.148 13.6302 243.588 13.9474C244.033 14.2647 244.557 14.4233 245.158 14.4233C245.56 14.4233 245.925 14.3499 246.252 14.2031C246.583 14.0516 246.86 13.8362 247.083 13.5568C247.31 13.2775 247.469 12.9413 247.559 12.5483H249.625C249.55 13.2538 249.32 13.8835 248.936 14.4375C248.553 14.9915 248.039 15.4271 247.395 15.7443C246.756 16.0616 246.006 16.2202 245.144 16.2202ZM256.491 16.2202C255.469 16.2202 254.576 15.9858 253.814 15.517C253.052 15.0483 252.46 14.3925 252.038 13.5497C251.617 12.7069 251.406 11.7221 251.406 10.5952C251.406 9.46354 251.617 8.47396 252.038 7.62642C252.46 6.77888 253.052 6.12074 253.814 5.65199C254.576 5.18324 255.469 4.94886 256.491 4.94886C257.514 4.94886 258.407 5.18324 259.169 5.65199C259.931 6.12074 260.523 6.77888 260.945 7.62642C261.366 8.47396 261.577 9.46354 261.577 10.5952C261.577 11.7221 261.366 12.7069 260.945 13.5497C260.523 14.3925 259.931 15.0483 259.169 15.517C258.407 15.9858 257.514 16.2202 256.491 16.2202ZM256.499 14.4375C257.161 14.4375 257.711 14.2623 258.146 13.9119C258.582 13.5616 258.904 13.0952 259.112 12.5128C259.325 11.9304 259.432 11.2888 259.432 10.5881C259.432 9.89205 259.325 9.25284 259.112 8.67045C258.904 8.08333 258.582 7.61222 258.146 7.2571C257.711 6.90199 257.161 6.72443 256.499 6.72443C255.831 6.72443 255.277 6.90199 254.837 7.2571C254.401 7.61222 254.077 8.08333 253.864 8.67045C253.655 9.25284 253.551 9.89205 253.551 10.5881C253.551 11.2888 253.655 11.9304 253.864 12.5128C254.077 13.0952 254.401 13.5616 254.837 13.9119C255.277 14.2623 255.831 14.4375 256.499 14.4375ZM263.947 16V5.09091H265.985V6.86648H266.12C266.348 6.26515 266.719 5.7964 267.235 5.46023C267.752 5.11932 268.369 4.94886 269.089 4.94886C269.818 4.94886 270.429 5.11932 270.922 5.46023C271.419 5.80114 271.786 6.26989 272.022 6.86648H272.136C272.396 6.28409 272.811 5.82008 273.379 5.47443C273.947 5.12405 274.624 4.94886 275.41 4.94886C276.4 4.94886 277.207 5.259 277.832 5.87926C278.462 6.49953 278.777 7.43466 278.777 8.68466V16H276.653V8.88352C276.653 8.14489 276.452 7.60985 276.049 7.27841C275.647 6.94697 275.166 6.78125 274.608 6.78125C273.916 6.78125 273.379 6.99432 272.995 7.42045C272.612 7.84186 272.42 8.384 272.42 9.04688V16H270.304V8.74858C270.304 8.15672 270.119 7.68087 269.75 7.32102C269.38 6.96117 268.9 6.78125 268.308 6.78125C267.905 6.78125 267.534 6.88778 267.193 7.10085C266.857 7.30919 266.584 7.60038 266.376 7.97443C266.172 8.34848 266.071 8.78172 266.071 9.27415V16H263.947ZM286.325 16.2202C285.25 16.2202 284.324 15.9905 283.548 15.5312C282.776 15.0672 282.179 14.4162 281.758 13.5781C281.341 12.7353 281.133 11.7481 281.133 10.6165C281.133 9.49905 281.341 8.5142 281.758 7.66193C282.179 6.80966 282.766 6.14441 283.519 5.66619C284.277 5.18797 285.162 4.94886 286.175 4.94886C286.791 4.94886 287.388 5.05066 287.965 5.25426C288.543 5.45786 289.061 5.77746 289.521 6.21307C289.98 6.64867 290.342 7.21449 290.607 7.91051C290.872 8.6018 291.005 9.44223 291.005 10.4318V11.1847H282.333V9.59375H288.924C288.924 9.03504 288.81 8.54025 288.583 8.10938C288.356 7.67377 288.036 7.33049 287.624 7.07955C287.217 6.8286 286.739 6.70312 286.19 6.70312C285.593 6.70312 285.072 6.84991 284.627 7.14347C284.187 7.43229 283.846 7.81108 283.604 8.27983C283.368 8.74384 283.249 9.24811 283.249 9.79261V11.0355C283.249 11.7647 283.377 12.3849 283.633 12.8963C283.893 13.4077 284.255 13.7983 284.719 14.0682C285.183 14.3333 285.726 14.4659 286.346 14.4659C286.748 14.4659 287.115 14.4091 287.447 14.2955C287.778 14.1771 288.065 14.0019 288.306 13.7699C288.548 13.5379 288.732 13.2514 288.86 12.9105L290.87 13.2727C290.709 13.8646 290.42 14.383 290.004 14.8281C289.592 15.2685 289.073 15.6117 288.448 15.858C287.828 16.0994 287.12 16.2202 286.325 16.2202ZM293.361 16V5.09091H295.414V6.82386H295.527C295.726 6.23674 296.077 5.77509 296.578 5.43892C297.085 5.09801 297.658 4.92756 298.297 4.92756C298.43 4.92756 298.586 4.93229 298.766 4.94176C298.951 4.95123 299.095 4.96307 299.199 4.97727V7.00852C299.114 6.98485 298.962 6.95881 298.745 6.9304C298.527 6.89725 298.309 6.88068 298.091 6.88068C297.589 6.88068 297.142 6.98722 296.749 7.20028C296.361 7.40862 296.053 7.69981 295.826 8.07386C295.598 8.44318 295.485 8.86458 295.485 9.33807V16H293.361ZM305.241 16.2202C304.186 16.2202 303.277 15.9811 302.514 15.5028C301.757 15.0199 301.174 14.3546 300.767 13.5071C300.36 12.6596 300.156 11.6889 300.156 10.5952C300.156 9.48722 300.365 8.50947 300.781 7.66193C301.198 6.80966 301.785 6.14441 302.543 5.66619C303.3 5.18797 304.193 4.94886 305.22 4.94886C306.049 4.94886 306.787 5.10275 307.436 5.41051C308.085 5.71354 308.608 6.13968 309.006 6.68892C309.408 7.23816 309.647 7.87973 309.723 8.61364H307.656C307.543 8.10227 307.282 7.66193 306.875 7.29261C306.473 6.9233 305.933 6.73864 305.256 6.73864C304.664 6.73864 304.145 6.89489 303.7 7.20739C303.26 7.51515 302.917 7.95549 302.67 8.52841C302.424 9.09659 302.301 9.76894 302.301 10.5455C302.301 11.3409 302.422 12.0275 302.663 12.6051C302.905 13.1828 303.246 13.6302 303.686 13.9474C304.131 14.2647 304.654 14.4233 305.256 14.4233C305.658 14.4233 306.023 14.3499 306.349 14.2031C306.681 14.0516 306.958 13.8362 307.18 13.5568C307.408 13.2775 307.566 12.9413 307.656 12.5483H309.723C309.647 13.2538 309.418 13.8835 309.034 14.4375C308.651 14.9915 308.137 15.4271 307.493 15.7443C306.854 16.0616 306.103 16.2202 305.241 16.2202ZM311.994 16V5.09091H314.118V16H311.994ZM313.066 3.40767C312.697 3.40767 312.38 3.28456 312.115 3.03835C311.854 2.7874 311.724 2.48911 311.724 2.14347C311.724 1.79309 311.854 1.49479 312.115 1.24858C312.38 0.997632 312.697 0.872159 313.066 0.872159C313.436 0.872159 313.751 0.997632 314.011 1.24858C314.276 1.49479 314.409 1.79309 314.409 2.14347C314.409 2.48911 314.276 2.7874 314.011 3.03835C313.751 3.28456 313.436 3.40767 313.066 3.40767ZM320.149 16.2415C319.458 16.2415 318.833 16.1136 318.274 15.858C317.715 15.5975 317.273 15.2211 316.946 14.7287C316.624 14.2363 316.463 13.6326 316.463 12.9176C316.463 12.3021 316.581 11.7955 316.818 11.3977C317.055 11 317.375 10.6851 317.777 10.4531C318.179 10.2211 318.629 10.0459 319.126 9.92756C319.624 9.80919 320.13 9.71922 320.646 9.65767C321.3 9.58191 321.83 9.52036 322.237 9.47301C322.644 9.42093 322.94 9.33807 323.125 9.22443C323.31 9.1108 323.402 8.92614 323.402 8.67045V8.62074C323.402 8.00047 323.227 7.51989 322.876 7.17898C322.531 6.83807 322.015 6.66761 321.328 6.66761C320.613 6.66761 320.05 6.82623 319.638 7.14347C319.231 7.45597 318.949 7.80398 318.793 8.1875L316.797 7.73295C317.034 7.07008 317.379 6.53504 317.834 6.12784C318.293 5.71591 318.821 5.41761 319.418 5.23295C320.014 5.04356 320.642 4.94886 321.3 4.94886C321.735 4.94886 322.197 5.00095 322.685 5.10511C323.177 5.20455 323.636 5.3892 324.062 5.65909C324.493 5.92898 324.846 6.31487 325.121 6.81676C325.395 7.31392 325.533 7.96023 325.533 8.75568V16H323.459V14.5085H323.374C323.236 14.7831 323.03 15.053 322.756 15.3182C322.481 15.5833 322.128 15.8035 321.697 15.9787C321.267 16.1539 320.75 16.2415 320.149 16.2415ZM320.611 14.5369C321.198 14.5369 321.7 14.4209 322.116 14.1889C322.538 13.9569 322.857 13.6539 323.075 13.2798C323.298 12.901 323.409 12.4962 323.409 12.0653V10.6591C323.333 10.7348 323.187 10.8059 322.969 10.8722C322.756 10.9337 322.512 10.9882 322.237 11.0355C321.963 11.0781 321.695 11.1184 321.435 11.1562C321.174 11.1894 320.956 11.2178 320.781 11.2415C320.369 11.2936 319.993 11.3812 319.652 11.5043C319.316 11.6274 319.046 11.8049 318.842 12.0369C318.643 12.2642 318.544 12.5672 318.544 12.946C318.544 13.4716 318.738 13.8693 319.126 14.1392C319.515 14.4044 320.009 14.5369 320.611 14.5369ZM330.485 1.45455V16H328.361V1.45455H330.485ZM334.741 16.1349C334.353 16.1349 334.019 15.9976 333.739 15.723C333.46 15.4437 333.32 15.1075 333.32 14.7145C333.32 14.3262 333.46 13.9948 333.739 13.7202C334.019 13.4408 334.353 13.3011 334.741 13.3011C335.129 13.3011 335.463 13.4408 335.742 13.7202C336.022 13.9948 336.161 14.3262 336.161 14.7145C336.161 14.9749 336.095 15.214 335.962 15.4318C335.835 15.6449 335.664 15.8153 335.451 15.9432C335.238 16.071 335.001 16.1349 334.741 16.1349Z" fill="white"/>
</svg>
