<svg width="980" height="60" viewBox="0 0 980 60" fill="none" xmlns="http://www.w3.org/2000/svg">
<path d="M0.386364 8.99006V2.36364H35.2017V8.99006H21.7145V46H13.8736V8.99006H0.386364ZM36.674 46V13.2727H44.1527V18.7273H44.4936C45.0902 16.8381 46.1129 15.3821 47.5618 14.3594C49.0249 13.3224 50.6939 12.804 52.5689 12.804C52.995 12.804 53.4709 12.8253 53.9964 12.8679C54.5362 12.8963 54.9837 12.946 55.3388 13.017V20.1122C55.0121 19.9986 54.4936 19.8991 53.7834 19.8139C53.0874 19.7145 52.4126 19.6648 51.7592 19.6648C50.353 19.6648 49.0888 19.9702 47.9666 20.581C46.8587 21.1776 45.9851 22.0085 45.3459 23.0739C44.7067 24.1392 44.3871 25.3679 44.3871 26.7599V46H36.674ZM67.7947 46.6605C65.7209 46.6605 63.853 46.2912 62.1911 45.5526C60.5433 44.7997 59.2365 43.6918 58.2706 42.2287C57.3189 40.7656 56.843 38.9616 56.843 36.8168C56.843 34.9702 57.1839 33.4432 57.8658 32.2358C58.5476 31.0284 59.478 30.0625 60.657 29.3381C61.8359 28.6136 63.1641 28.0668 64.6413 27.6974C66.1328 27.3139 67.674 27.0369 69.2649 26.8665C71.1825 26.6676 72.7379 26.4901 73.9311 26.3338C75.1243 26.1634 75.9908 25.9077 76.5305 25.5668C77.0845 25.2116 77.3615 24.6648 77.3615 23.9261V23.7983C77.3615 22.1932 76.8857 20.9503 75.9339 20.0696C74.9822 19.1889 73.6115 18.7486 71.8217 18.7486C69.9325 18.7486 68.4339 19.1605 67.326 19.9844C66.2322 20.8082 65.4936 21.7812 65.1101 22.9034L57.9084 21.8807C58.4766 19.892 59.4141 18.2301 60.7209 16.8949C62.0277 15.5455 63.6257 14.5369 65.5149 13.8693C67.4041 13.1875 69.4922 12.8466 71.7791 12.8466C73.3558 12.8466 74.9254 13.0313 76.4879 13.4006C78.0504 13.7699 79.478 14.3807 80.7706 15.233C82.0632 16.071 83.1001 17.2145 83.8814 18.6634C84.6768 20.1122 85.0746 21.9233 85.0746 24.0966V46H77.6598V41.5043H77.4041C76.9354 42.4134 76.2749 43.2656 75.4226 44.0611C74.5845 44.8423 73.5263 45.4744 72.2479 45.9574C70.9837 46.4261 69.4993 46.6605 67.7947 46.6605ZM69.7976 40.9929C71.3459 40.9929 72.6882 40.6875 73.8246 40.0767C74.9609 39.4517 75.8345 38.6278 76.4453 37.6051C77.0703 36.5824 77.3828 35.4673 77.3828 34.2599V30.4034C77.1413 30.6023 76.7294 30.7869 76.147 30.9574C75.5788 31.1278 74.9396 31.277 74.2294 31.4048C73.5192 31.5327 72.8161 31.6463 72.12 31.7457C71.424 31.8452 70.8203 31.9304 70.3089 32.0014C69.1584 32.1577 68.1286 32.4134 67.2195 32.7685C66.3104 33.1236 65.593 33.6207 65.0675 34.2599C64.5419 34.8849 64.2791 35.6946 64.2791 36.6889C64.2791 38.1094 64.7976 39.1818 65.8345 39.9062C66.8714 40.6307 68.1925 40.9929 69.7976 40.9929ZM103.475 46.5753C100.904 46.5753 98.603 45.9148 96.5717 44.5938C94.5405 43.2727 92.9354 41.3551 91.7564 38.8409C90.5774 36.3267 89.9879 33.2727 89.9879 29.679C89.9879 26.0426 90.5845 22.9744 91.7777 20.4744C92.9851 17.9602 94.6115 16.0639 96.657 14.7855C98.7024 13.4929 100.982 12.8466 103.496 12.8466C105.414 12.8466 106.991 13.1733 108.227 13.8267C109.462 14.4659 110.442 15.2401 111.167 16.1491C111.891 17.044 112.452 17.8892 112.85 18.6847H113.17V2.36364H120.904V46H113.319V40.8438H112.85C112.452 41.6392 111.877 42.4844 111.124 43.3793C110.371 44.2599 109.377 45.0128 108.141 45.6378C106.906 46.2628 105.35 46.5753 103.475 46.5753ZM105.627 40.2472C107.261 40.2472 108.653 39.8068 109.803 38.9261C110.954 38.0312 111.827 36.7884 112.424 35.1974C113.021 33.6065 113.319 31.7528 113.319 29.6364C113.319 27.5199 113.021 25.6804 112.424 24.1179C111.842 22.5554 110.975 21.3409 109.825 20.4744C108.688 19.608 107.289 19.1747 105.627 19.1747C103.908 19.1747 102.474 19.6222 101.323 20.517C100.173 21.4119 99.3061 22.6477 98.7237 24.2244C98.1413 25.8011 97.8501 27.6051 97.8501 29.6364C97.8501 31.6818 98.1413 33.5071 98.7237 35.1122C99.3203 36.7031 100.194 37.9602 101.344 38.8835C102.509 39.7926 103.937 40.2472 105.627 40.2472ZM127.623 46V13.2727H135.336V46H127.623ZM131.501 8.62784C130.279 8.62784 129.228 8.22301 128.348 7.41335C127.467 6.58949 127.027 5.60227 127.027 4.4517C127.027 3.28693 127.467 2.29971 128.348 1.49005C129.228 0.666191 130.279 0.25426 131.501 0.25426C132.737 0.25426 133.788 0.666191 134.654 1.49005C135.535 2.29971 135.975 3.28693 135.975 4.4517C135.975 5.60227 135.535 6.58949 134.654 7.41335C133.788 8.22301 132.737 8.62784 131.501 8.62784ZM156.043 46.6392C152.776 46.6392 149.971 45.9219 147.627 44.4872C145.298 43.0526 143.501 41.071 142.237 38.5426C140.987 36 140.362 33.0739 140.362 29.7642C140.362 26.4403 141.001 23.5071 142.279 20.9645C143.558 18.4077 145.362 16.419 147.691 14.9986C150.035 13.5639 152.805 12.8466 156.001 12.8466C158.657 12.8466 161.008 13.3366 163.053 14.3168C165.113 15.2827 166.754 16.6534 167.975 18.429C169.197 20.1903 169.893 22.25 170.063 24.608H162.691C162.393 23.0312 161.683 21.7173 160.56 20.6662C159.452 19.6009 157.968 19.0682 156.107 19.0682C154.531 19.0682 153.146 19.4943 151.952 20.3466C150.759 21.1847 149.829 22.392 149.161 23.9688C148.508 25.5455 148.181 27.4347 148.181 29.6364C148.181 31.8665 148.508 33.7841 149.161 35.3892C149.815 36.9801 150.731 38.2088 151.91 39.0753C153.103 39.9276 154.502 40.3537 156.107 40.3537C157.244 40.3537 158.259 40.1406 159.154 39.7145C160.063 39.2741 160.823 38.642 161.434 37.8182C162.045 36.9943 162.464 35.9929 162.691 34.8139H170.063C169.879 37.1293 169.197 39.1818 168.018 40.9716C166.839 42.7472 165.234 44.1392 163.202 45.1477C161.171 46.142 158.785 46.6392 156.043 46.6392ZM153.827 45.8295H158.004L157.663 47.6406C158.998 47.8395 160.127 48.3509 161.05 49.1747C161.988 50.0128 162.457 51.2131 162.457 52.7756C162.471 54.7926 161.569 56.4119 159.751 57.6335C157.933 58.8551 155.34 59.4659 151.974 59.4659L151.888 55.6733C153.522 55.6733 154.822 55.4531 155.788 55.0128C156.754 54.5866 157.244 53.9048 157.258 52.9673C157.286 52.0582 156.945 51.3906 156.235 50.9645C155.539 50.5526 154.431 50.2685 152.911 50.1122L153.827 45.8295ZM184.314 46.6605C182.24 46.6605 180.373 46.2912 178.711 45.5526C177.063 44.7997 175.756 43.6918 174.79 42.2287C173.838 40.7656 173.363 38.9616 173.363 36.8168C173.363 34.9702 173.703 33.4432 174.385 32.2358C175.067 31.0284 175.998 30.0625 177.176 29.3381C178.355 28.6136 179.684 28.0668 181.161 27.6974C182.652 27.3139 184.194 27.0369 185.784 26.8665C187.702 26.6676 189.257 26.4901 190.451 26.3338C191.644 26.1634 192.51 25.9077 193.05 25.5668C193.604 25.2116 193.881 24.6648 193.881 23.9261V23.7983C193.881 22.1932 193.405 20.9503 192.453 20.0696C191.502 19.1889 190.131 18.7486 188.341 18.7486C186.452 18.7486 184.953 19.1605 183.846 19.9844C182.752 20.8082 182.013 21.7812 181.63 22.9034L174.428 21.8807C174.996 19.892 175.934 18.2301 177.24 16.8949C178.547 15.5455 180.145 14.5369 182.034 13.8693C183.924 13.1875 186.012 12.8466 188.299 12.8466C189.875 12.8466 191.445 13.0313 193.007 13.4006C194.57 13.7699 195.998 14.3807 197.29 15.233C198.583 16.071 199.62 17.2145 200.401 18.6634C201.196 20.1122 201.594 21.9233 201.594 24.0966V46H194.179V41.5043H193.924C193.455 42.4134 192.794 43.2656 191.942 44.0611C191.104 44.8423 190.046 45.4744 188.767 45.9574C187.503 46.4261 186.019 46.6605 184.314 46.6605ZM186.317 40.9929C187.865 40.9929 189.208 40.6875 190.344 40.0767C191.48 39.4517 192.354 38.6278 192.965 37.6051C193.59 36.5824 193.902 35.4673 193.902 34.2599V30.4034C193.661 30.6023 193.249 30.7869 192.667 30.9574C192.098 31.1278 191.459 31.277 190.749 31.4048C190.039 31.5327 189.336 31.6463 188.64 31.7457C187.944 31.8452 187.34 31.9304 186.828 32.0014C185.678 32.1577 184.648 32.4134 183.739 32.7685C182.83 33.1236 182.113 33.6207 181.587 34.2599C181.061 34.8849 180.799 35.6946 180.799 36.6889C180.799 38.1094 181.317 39.1818 182.354 39.9062C183.391 40.6307 184.712 40.9929 186.317 40.9929ZM182.375 9.28835L177.709 9.18182C177.709 6.65341 178.363 4.67187 179.669 3.23722C180.976 1.80256 182.588 1.08523 184.506 1.08523C185.429 1.08523 186.232 1.24148 186.914 1.55398C187.596 1.85227 188.221 2.20028 188.789 2.59801C189.371 2.99574 189.939 3.35085 190.493 3.66335C191.047 3.96165 191.658 4.11079 192.326 4.11079C193.135 4.11079 193.775 3.8054 194.243 3.1946C194.726 2.58381 194.975 1.80256 194.989 0.850851L199.57 1.04261C199.556 3.58523 198.895 5.55966 197.588 6.96591C196.282 8.35795 194.676 9.06108 192.773 9.07528C191.75 9.08949 190.891 8.94034 190.195 8.62784C189.499 8.31534 188.888 7.96023 188.363 7.5625C187.851 7.16477 187.333 6.81676 186.807 6.51847C186.282 6.20597 185.664 6.04972 184.953 6.04972C184.201 6.04972 183.583 6.34801 183.1 6.9446C182.617 7.54119 182.375 8.32244 182.375 9.28835ZM222.125 46.6392C218.929 46.6392 216.159 45.9361 213.816 44.5298C211.472 43.1236 209.654 41.1562 208.361 38.6278C207.083 36.0994 206.444 33.1449 206.444 29.7642C206.444 26.3835 207.083 23.4219 208.361 20.8793C209.654 18.3366 211.472 16.3622 213.816 14.956C216.159 13.5497 218.929 12.8466 222.125 12.8466C225.321 12.8466 228.091 13.5497 230.435 14.956C232.779 16.3622 234.59 18.3366 235.868 20.8793C237.161 23.4219 237.807 26.3835 237.807 29.7642C237.807 33.1449 237.161 36.0994 235.868 38.6278C234.59 41.1562 232.779 43.1236 230.435 44.5298C228.091 45.9361 225.321 46.6392 222.125 46.6392ZM222.168 40.4602C223.901 40.4602 225.35 39.9844 226.515 39.0327C227.679 38.0668 228.546 36.7741 229.114 35.1548C229.696 33.5355 229.988 31.7315 229.988 29.7429C229.988 27.7401 229.696 25.929 229.114 24.3097C228.546 22.6761 227.679 21.3764 226.515 20.4105C225.35 19.4446 223.901 18.9616 222.168 18.9616C220.392 18.9616 218.915 19.4446 217.736 20.4105C216.571 21.3764 215.698 22.6761 215.115 24.3097C214.547 25.929 214.263 27.7401 214.263 29.7429C214.263 31.7315 214.547 33.5355 215.115 35.1548C215.698 36.7741 216.571 38.0668 217.736 39.0327C218.915 39.9844 220.392 40.4602 222.168 40.4602ZM270.725 46.6392C267.444 46.6392 264.61 45.9574 262.224 44.5938C259.852 43.2159 258.026 41.2699 256.748 38.7557C255.469 36.2273 254.83 33.2514 254.83 29.8281C254.83 26.4616 255.469 23.5071 256.748 20.9645C258.04 18.4077 259.844 16.419 262.16 14.9986C264.475 13.5639 267.195 12.8466 270.32 12.8466C272.337 12.8466 274.241 13.1733 276.031 13.8267C277.835 14.4659 279.425 15.4602 280.803 16.8097C282.195 18.1591 283.289 19.8778 284.085 21.9659C284.88 24.0398 285.278 26.5114 285.278 29.3807V31.7457H258.452V26.5469H277.884C277.87 25.0696 277.55 23.7557 276.925 22.6051C276.3 21.4403 275.427 20.5241 274.305 19.8565C273.197 19.1889 271.904 18.8551 270.427 18.8551C268.85 18.8551 267.465 19.2386 266.272 20.0057C265.079 20.7585 264.148 21.7528 263.481 22.9886C262.827 24.2102 262.494 25.5526 262.479 27.0156V31.554C262.479 33.4574 262.827 35.0909 263.523 36.4545C264.219 37.804 265.192 38.8409 266.442 39.5653C267.692 40.2756 269.156 40.6307 270.832 40.6307C271.954 40.6307 272.969 40.4744 273.879 40.1619C274.788 39.8352 275.576 39.3594 276.244 38.7344C276.911 38.1094 277.415 37.3352 277.756 36.4119L284.958 37.2216C284.504 39.125 283.637 40.7869 282.359 42.2074C281.094 43.6136 279.475 44.7074 277.501 45.4886C275.526 46.2557 273.268 46.6392 270.725 46.6392ZM290.303 46V13.2727H297.675V18.8338H298.059C298.74 16.9588 299.87 15.4957 301.446 14.4446C303.023 13.3793 304.905 12.8466 307.093 12.8466C309.309 12.8466 311.176 13.3864 312.696 14.4659C314.23 15.5312 315.31 16.9872 315.935 18.8338H316.276C317 17.0156 318.222 15.5668 319.941 14.4872C321.674 13.3935 323.726 12.8466 326.098 12.8466C329.11 12.8466 331.567 13.7983 333.471 15.7017C335.374 17.6051 336.326 20.3821 336.326 24.0327V46H328.591V25.2259C328.591 23.1946 328.051 21.7102 326.972 20.7727C325.892 19.821 324.571 19.3452 323.009 19.3452C321.148 19.3452 319.692 19.9276 318.641 21.0923C317.604 22.2429 317.086 23.7415 317.086 25.5881V46H309.522V24.9062C309.522 23.2159 309.01 21.8665 307.988 20.858C306.979 19.8494 305.658 19.3452 304.025 19.3452C302.917 19.3452 301.908 19.6293 300.999 20.1974C300.09 20.7514 299.365 21.5398 298.826 22.5625C298.286 23.571 298.016 24.75 298.016 26.0994V46H290.303ZM356.033 58.2727V13.2727H363.619V18.6847H364.066C364.464 17.8892 365.025 17.044 365.749 16.1491C366.474 15.2401 367.454 14.4659 368.69 13.8267C369.925 13.1733 371.502 12.8466 373.42 12.8466C375.948 12.8466 378.228 13.4929 380.259 14.7855C382.305 16.0639 383.924 17.9602 385.117 20.4744C386.325 22.9744 386.928 26.0426 386.928 29.679C386.928 33.2727 386.339 36.3267 385.16 38.8409C383.981 41.3551 382.376 43.2727 380.344 44.5938C378.313 45.9148 376.012 46.5753 373.441 46.5753C371.566 46.5753 370.011 46.2628 368.775 45.6378C367.539 45.0128 366.545 44.2599 365.792 43.3793C365.053 42.4844 364.478 41.6392 364.066 40.8438H363.746V58.2727H356.033ZM363.597 29.6364C363.597 31.7528 363.896 33.6065 364.492 35.1974C365.103 36.7884 365.977 38.0312 367.113 38.9261C368.263 39.8068 369.656 40.2472 371.289 40.2472C372.994 40.2472 374.421 39.7926 375.572 38.8835C376.722 37.9602 377.589 36.7031 378.171 35.1122C378.768 33.5071 379.066 31.6818 379.066 29.6364C379.066 27.6051 378.775 25.8011 378.192 24.2244C377.61 22.6477 376.744 21.4119 375.593 20.517C374.442 19.6222 373.008 19.1747 371.289 19.1747C369.641 19.1747 368.242 19.608 367.092 20.4744C365.941 21.3409 365.067 22.5554 364.471 24.1179C363.888 25.6804 363.597 27.5199 363.597 29.6364ZM392.033 46V13.2727H399.512V18.7273H399.853C400.45 16.8381 401.472 15.3821 402.921 14.3594C404.384 13.3224 406.053 12.804 407.928 12.804C408.354 12.804 408.83 12.8253 409.356 12.8679C409.896 12.8963 410.343 12.946 410.698 13.017V20.1122C410.371 19.9986 409.853 19.8991 409.143 19.8139C408.447 19.7145 407.772 19.6648 407.119 19.6648C405.712 19.6648 404.448 19.9702 403.326 20.581C402.218 21.1776 401.344 22.0085 400.705 23.0739C400.066 24.1392 399.746 25.3679 399.746 26.7599V46H392.033ZM427.25 46.6392C424.054 46.6392 421.284 45.9361 418.941 44.5298C416.597 43.1236 414.779 41.1562 413.486 38.6278C412.208 36.0994 411.569 33.1449 411.569 29.7642C411.569 26.3835 412.208 23.4219 413.486 20.8793C414.779 18.3366 416.597 16.3622 418.941 14.956C421.284 13.5497 424.054 12.8466 427.25 12.8466C430.446 12.8466 433.216 13.5497 435.56 14.956C437.904 16.3622 439.715 18.3366 440.993 20.8793C442.286 23.4219 442.932 26.3835 442.932 29.7642C442.932 33.1449 442.286 36.0994 440.993 38.6278C439.715 41.1562 437.904 43.1236 435.56 44.5298C433.216 45.9361 430.446 46.6392 427.25 46.6392ZM427.293 40.4602C429.026 40.4602 430.475 39.9844 431.64 39.0327C432.804 38.0668 433.671 36.7741 434.239 35.1548C434.821 33.5355 435.113 31.7315 435.113 29.7429C435.113 27.7401 434.821 25.929 434.239 24.3097C433.671 22.6761 432.804 21.3764 431.64 20.4105C430.475 19.4446 429.026 18.9616 427.293 18.9616C425.517 18.9616 424.04 19.4446 422.861 20.4105C421.696 21.3764 420.823 22.6761 420.24 24.3097C419.672 25.929 419.388 27.7401 419.388 29.7429C419.388 31.7315 419.672 33.5355 420.24 35.1548C420.823 36.7741 421.696 38.0668 422.861 39.0327C424.04 39.9844 425.517 40.4602 427.293 40.4602ZM447.979 13.2727H455.692V47.875C455.692 50.233 455.244 52.179 454.349 53.7131C453.455 55.2472 452.162 56.3906 450.472 57.1435C448.781 57.8963 446.729 58.2727 444.314 58.2727C444.03 58.2727 443.767 58.2656 443.526 58.2514C443.284 58.2514 443.021 58.2443 442.737 58.2301V51.9446C442.95 51.9588 443.142 51.9659 443.312 51.9659C443.483 51.9801 443.661 51.9872 443.845 51.9872C445.322 51.9872 446.381 51.625 447.02 50.9006C447.659 50.1903 447.979 49.1463 447.979 47.7685V13.2727ZM451.814 8.62784C450.578 8.62784 449.52 8.22301 448.639 7.41335C447.773 6.58949 447.339 5.60227 447.339 4.4517C447.339 3.28693 447.773 2.29971 448.639 1.49005C449.52 0.666191 450.578 0.25426 451.814 0.25426C453.036 0.25426 454.08 0.666191 454.946 1.49005C455.827 2.29971 456.267 3.28693 456.267 4.4517C456.267 5.60227 455.827 6.58949 454.946 7.41335C454.08 8.22301 453.036 8.62784 451.814 8.62784ZM476.612 46.6392C473.331 46.6392 470.497 45.9574 468.11 44.5938C465.738 43.2159 463.913 41.2699 462.635 38.7557C461.356 36.2273 460.717 33.2514 460.717 29.8281C460.717 26.4616 461.356 23.5071 462.635 20.9645C463.927 18.4077 465.731 16.419 468.047 14.9986C470.362 13.5639 473.082 12.8466 476.207 12.8466C478.224 12.8466 480.127 13.1733 481.917 13.8267C483.721 14.4659 485.312 15.4602 486.69 16.8097C488.082 18.1591 489.176 19.8778 489.971 21.9659C490.767 24.0398 491.164 26.5114 491.164 29.3807V31.7457H464.339V26.5469H483.771C483.757 25.0696 483.437 23.7557 482.812 22.6051C482.187 21.4403 481.314 20.5241 480.191 19.8565C479.083 19.1889 477.791 18.8551 476.314 18.8551C474.737 18.8551 473.352 19.2386 472.159 20.0057C470.966 20.7585 470.035 21.7528 469.368 22.9886C468.714 24.2102 468.38 25.5526 468.366 27.0156V31.554C468.366 33.4574 468.714 35.0909 469.41 36.4545C470.106 37.804 471.079 38.8409 472.329 39.5653C473.579 40.2756 475.042 40.6307 476.718 40.6307C477.841 40.6307 478.856 40.4744 479.765 40.1619C480.674 39.8352 481.463 39.3594 482.13 38.7344C482.798 38.1094 483.302 37.3352 483.643 36.4119L490.845 37.2216C490.39 39.125 489.524 40.7869 488.245 42.2074C486.981 43.6136 485.362 44.7074 483.387 45.4886C481.413 46.2557 479.154 46.6392 476.612 46.6392ZM512.532 13.2727V19.2386H493.718V13.2727H512.532ZM498.363 5.43182H506.076V36.1562C506.076 37.1932 506.232 37.9886 506.545 38.5426C506.871 39.0824 507.298 39.4517 507.823 39.6506C508.349 39.8494 508.931 39.9489 509.57 39.9489C510.053 39.9489 510.494 39.9134 510.891 39.8423C511.303 39.7713 511.616 39.7074 511.829 39.6506L513.129 45.6804C512.717 45.8224 512.127 45.9787 511.36 46.1491C510.607 46.3196 509.684 46.419 508.59 46.4474C506.658 46.5043 504.918 46.2131 503.37 45.5739C501.822 44.9205 500.593 43.9119 499.684 42.5483C498.789 41.1847 498.349 39.4801 498.363 37.4347V5.43182ZM531.407 46.6392C528.211 46.6392 525.441 45.9361 523.097 44.5298C520.753 43.1236 518.935 41.1562 517.642 38.6278C516.364 36.0994 515.725 33.1449 515.725 29.7642C515.725 26.3835 516.364 23.4219 517.642 20.8793C518.935 18.3366 520.753 16.3622 523.097 14.956C525.441 13.5497 528.211 12.8466 531.407 12.8466C534.603 12.8466 537.373 13.5497 539.716 14.956C542.06 16.3622 543.871 18.3366 545.15 20.8793C546.442 23.4219 547.088 26.3835 547.088 29.7642C547.088 33.1449 546.442 36.0994 545.15 38.6278C543.871 41.1562 542.06 43.1236 539.716 44.5298C537.373 45.9361 534.603 46.6392 531.407 46.6392ZM531.449 40.4602C533.182 40.4602 534.631 39.9844 535.796 39.0327C536.961 38.0668 537.827 36.7741 538.395 35.1548C538.978 33.5355 539.269 31.7315 539.269 29.7429C539.269 27.7401 538.978 25.929 538.395 24.3097C537.827 22.6761 536.961 21.3764 535.796 20.4105C534.631 19.4446 533.182 18.9616 531.449 18.9616C529.674 18.9616 528.196 19.4446 527.017 20.4105C525.853 21.3764 524.979 22.6761 524.397 24.3097C523.828 25.929 523.544 27.7401 523.544 29.7429C523.544 31.7315 523.828 33.5355 524.397 35.1548C524.979 36.7741 525.853 38.0668 527.017 39.0327C528.196 39.9844 529.674 40.4602 531.449 40.4602ZM578.001 21.9233L570.97 22.6903C570.771 21.9801 570.423 21.3125 569.926 20.6875C569.443 20.0625 568.79 19.5582 567.966 19.1747C567.142 18.7912 566.134 18.5994 564.94 18.5994C563.335 18.5994 561.986 18.9474 560.892 19.6435C559.812 20.3395 559.28 21.2415 559.294 22.3494C559.28 23.3011 559.628 24.0753 560.338 24.6719C561.063 25.2685 562.256 25.7585 563.918 26.142L569.5 27.3352C572.597 28.0028 574.898 29.0611 576.403 30.5099C577.923 31.9588 578.69 33.8551 578.705 36.1989C578.69 38.2585 578.087 40.0767 576.893 41.6534C575.714 43.2159 574.074 44.4375 571.972 45.3182C569.869 46.1989 567.455 46.6392 564.727 46.6392C560.722 46.6392 557.497 45.8011 555.054 44.125C552.611 42.4347 551.155 40.0838 550.686 37.0724L558.207 36.348C558.548 37.8253 559.273 38.9403 560.381 39.6932C561.489 40.446 562.93 40.8224 564.706 40.8224C566.538 40.8224 568.009 40.446 569.116 39.6932C570.239 38.9403 570.8 38.0099 570.8 36.902C570.8 35.9645 570.438 35.1903 569.713 34.5795C569.003 33.9687 567.895 33.5 566.389 33.1733L560.807 32.0014C557.668 31.348 555.345 30.2472 553.839 28.6989C552.334 27.1364 551.588 25.1619 551.602 22.7756C551.588 20.7585 552.135 19.0114 553.243 17.5341C554.365 16.0426 555.92 14.892 557.909 14.0824C559.912 13.2585 562.22 12.8466 564.834 12.8466C568.669 12.8466 571.688 13.6634 573.889 15.2969C576.105 16.9304 577.476 19.1392 578.001 21.9233ZM609.092 46.5753C606.521 46.5753 604.22 45.9148 602.189 44.5938C600.158 43.2727 598.553 41.3551 597.374 38.8409C596.195 36.3267 595.605 33.2727 595.605 29.679C595.605 26.0426 596.202 22.9744 597.395 20.4744C598.602 17.9602 600.229 16.0639 602.274 14.7855C604.32 13.4929 606.599 12.8466 609.114 12.8466C611.031 12.8466 612.608 13.1733 613.844 13.8267C615.08 14.4659 616.06 15.2401 616.784 16.1491C617.509 17.044 618.07 17.8892 618.467 18.6847H618.787V2.36364H626.521V46H618.936V40.8438H618.467C618.07 41.6392 617.494 42.4844 616.741 43.3793C615.989 44.2599 614.994 45.0128 613.759 45.6378C612.523 46.2628 610.967 46.5753 609.092 46.5753ZM611.244 40.2472C612.878 40.2472 614.27 39.8068 615.42 38.9261C616.571 38.0312 617.445 36.7884 618.041 35.1974C618.638 33.6065 618.936 31.7528 618.936 29.6364C618.936 27.5199 618.638 25.6804 618.041 24.1179C617.459 22.5554 616.592 21.3409 615.442 20.4744C614.305 19.608 612.906 19.1747 611.244 19.1747C609.526 19.1747 608.091 19.6222 606.94 20.517C605.79 21.4119 604.923 22.6477 604.341 24.2244C603.759 25.8011 603.467 27.6051 603.467 29.6364C603.467 31.6818 603.759 33.5071 604.341 35.1122C604.938 36.7031 605.811 37.9602 606.962 38.8835C608.126 39.7926 609.554 40.2472 611.244 40.2472ZM647.729 46.6392C644.448 46.6392 641.614 45.9574 639.228 44.5938C636.855 43.2159 635.03 41.2699 633.752 38.7557C632.473 36.2273 631.834 33.2514 631.834 29.8281C631.834 26.4616 632.473 23.5071 633.752 20.9645C635.044 18.4077 636.848 16.419 639.164 14.9986C641.479 13.5639 644.199 12.8466 647.324 12.8466C649.341 12.8466 651.245 13.1733 653.034 13.8267C654.838 14.4659 656.429 15.4602 657.807 16.8097C659.199 18.1591 660.293 19.8778 661.088 21.9659C661.884 24.0398 662.282 26.5114 662.282 29.3807V31.7457H635.456V26.5469H654.888C654.874 25.0696 654.554 23.7557 653.929 22.6051C653.304 21.4403 652.431 20.5241 651.309 19.8565C650.201 19.1889 648.908 18.8551 647.431 18.8551C645.854 18.8551 644.469 19.2386 643.276 20.0057C642.083 20.7585 641.152 21.7528 640.485 22.9886C639.831 24.2102 639.498 25.5526 639.483 27.0156V31.554C639.483 33.4574 639.831 35.0909 640.527 36.4545C641.223 37.804 642.196 38.8409 643.446 39.5653C644.696 40.2756 646.159 40.6307 647.836 40.6307C648.958 40.6307 649.973 40.4744 650.882 40.1619C651.792 39.8352 652.58 39.3594 653.248 38.7344C653.915 38.1094 654.419 37.3352 654.76 36.4119L661.962 37.2216C661.507 39.125 660.641 40.7869 659.363 42.2074C658.098 43.6136 656.479 44.7074 654.505 45.4886C652.53 46.2557 650.272 46.6392 647.729 46.6392ZM690.107 46.6605C688.033 46.6605 686.165 46.2912 684.504 45.5526C682.856 44.7997 681.549 43.6918 680.583 42.2287C679.631 40.7656 679.156 38.9616 679.156 36.8168C679.156 34.9702 679.496 33.4432 680.178 32.2358C680.86 31.0284 681.79 30.0625 682.969 29.3381C684.148 28.6136 685.477 28.0668 686.954 27.6974C688.445 27.3139 689.987 27.0369 691.577 26.8665C693.495 26.6676 695.05 26.4901 696.244 26.3338C697.437 26.1634 698.303 25.9077 698.843 25.5668C699.397 25.2116 699.674 24.6648 699.674 23.9261V23.7983C699.674 22.1932 699.198 20.9503 698.246 20.0696C697.295 19.1889 695.924 18.7486 694.134 18.7486C692.245 18.7486 690.746 19.1605 689.638 19.9844C688.545 20.8082 687.806 21.7812 687.423 22.9034L680.221 21.8807C680.789 19.892 681.727 18.2301 683.033 16.8949C684.34 15.5455 685.938 14.5369 687.827 13.8693C689.717 13.1875 691.805 12.8466 694.092 12.8466C695.668 12.8466 697.238 13.0313 698.8 13.4006C700.363 13.7699 701.79 14.3807 703.083 15.233C704.376 16.071 705.413 17.2145 706.194 18.6634C706.989 20.1122 707.387 21.9233 707.387 24.0966V46H699.972V41.5043H699.717C699.248 42.4134 698.587 43.2656 697.735 44.0611C696.897 44.8423 695.839 45.4744 694.56 45.9574C693.296 46.4261 691.812 46.6605 690.107 46.6605ZM692.11 40.9929C693.658 40.9929 695.001 40.6875 696.137 40.0767C697.273 39.4517 698.147 38.6278 698.758 37.6051C699.383 36.5824 699.695 35.4673 699.695 34.2599V30.4034C699.454 30.6023 699.042 30.7869 698.46 30.9574C697.891 31.1278 697.252 31.277 696.542 31.4048C695.832 31.5327 695.129 31.6463 694.433 31.7457C693.737 31.8452 693.133 31.9304 692.621 32.0014C691.471 32.1577 690.441 32.4134 689.532 32.7685C688.623 33.1236 687.906 33.6207 687.38 34.2599C686.854 34.8849 686.592 35.6946 686.592 36.6889C686.592 38.1094 687.11 39.1818 688.147 39.9062C689.184 40.6307 690.505 40.9929 692.11 40.9929ZM713.643 46V13.2727H721.121V18.7273H721.462C722.059 16.8381 723.082 15.3821 724.531 14.3594C725.994 13.3224 727.663 12.804 729.538 12.804C729.964 12.804 730.44 12.8253 730.965 12.8679C731.505 12.8963 731.952 12.946 732.308 13.017V20.1122C731.981 19.9986 731.462 19.8991 730.752 19.8139C730.056 19.7145 729.381 19.6648 728.728 19.6648C727.322 19.6648 726.058 19.9702 724.935 20.581C723.827 21.1776 722.954 22.0085 722.315 23.0739C721.675 24.1392 721.356 25.3679 721.356 26.7599V46H713.643ZM756.424 58.2727V40.8438H756.104C755.706 41.6392 755.131 42.4844 754.378 43.3793C753.625 44.2599 752.631 45.0128 751.395 45.6378C750.159 46.2628 748.604 46.5753 746.729 46.5753C744.158 46.5753 741.857 45.9148 739.826 44.5938C737.794 43.2727 736.189 41.3551 735.01 38.8409C733.831 36.3267 733.242 33.2727 733.242 29.679C733.242 26.0426 733.838 22.9744 735.032 20.4744C736.239 17.9602 737.865 16.0639 739.911 14.7855C741.956 13.4929 744.236 12.8466 746.75 12.8466C748.668 12.8466 750.245 13.1733 751.48 13.8267C752.716 14.4659 753.696 15.2401 754.421 16.1491C755.145 17.044 755.706 17.8892 756.104 18.6847H756.573V13.2727H764.158V58.2727H756.424ZM748.881 40.2472C750.515 40.2472 751.907 39.8068 753.057 38.9261C754.208 38.0312 755.081 36.7884 755.678 35.1974C756.275 33.6065 756.573 31.7528 756.573 29.6364C756.573 27.5199 756.275 25.6804 755.678 24.1179C755.096 22.5554 754.229 21.3409 753.078 20.4744C751.942 19.608 750.543 19.1747 748.881 19.1747C747.162 19.1747 745.728 19.6222 744.577 20.517C743.426 21.4119 742.56 22.6477 741.978 24.2244C741.395 25.8011 741.104 27.6051 741.104 29.6364C741.104 31.6818 741.395 33.5071 741.978 35.1122C742.574 36.7031 743.448 37.9602 744.598 38.8835C745.763 39.7926 747.191 40.2472 748.881 40.2472ZM791.444 32.2358V13.2727H799.157V46H791.678V40.1832H791.337C790.598 42.0156 789.384 43.5142 787.694 44.679C786.017 45.8437 783.951 46.4261 781.493 46.4261C779.348 46.4261 777.452 45.9503 775.804 44.9986C774.171 44.0327 772.892 42.6335 771.969 40.8011C771.046 38.9545 770.584 36.7244 770.584 34.1108V13.2727H778.297V32.9176C778.297 34.9915 778.865 36.6392 780.002 37.8608C781.138 39.0824 782.63 39.6932 784.476 39.6932C785.613 39.6932 786.713 39.4162 787.779 38.8622C788.844 38.3082 789.718 37.4844 790.4 36.3906C791.096 35.2827 791.444 33.8977 791.444 32.2358ZM805.588 46V13.2727H813.301V46H805.588ZM809.466 8.62784C808.244 8.62784 807.193 8.22301 806.312 7.41335C805.432 6.58949 804.991 5.60227 804.991 4.4517C804.991 3.28693 805.432 2.29971 806.312 1.49005C807.193 0.666191 808.244 0.25426 809.466 0.25426C810.702 0.25426 811.753 0.666191 812.619 1.49005C813.5 2.29971 813.94 3.28693 813.94 4.4517C813.94 5.60227 813.5 6.58949 812.619 7.41335C811.753 8.22301 810.702 8.62784 809.466 8.62784ZM836.075 13.2727V19.2386H817.261V13.2727H836.075ZM821.906 5.43182H829.619V36.1562C829.619 37.1932 829.775 37.9886 830.088 38.5426C830.414 39.0824 830.841 39.4517 831.366 39.6506C831.892 39.8494 832.474 39.9489 833.113 39.9489C833.596 39.9489 834.037 39.9134 834.434 39.8423C834.846 39.7713 835.159 39.7074 835.372 39.6506L836.672 45.6804C836.26 45.8224 835.67 45.9787 834.903 46.1491C834.15 46.3196 833.227 46.419 832.133 46.4474C830.201 46.5043 828.461 46.2131 826.913 45.5739C825.365 44.9205 824.136 43.9119 823.227 42.5483C822.332 41.1847 821.892 39.4801 821.906 37.4347V5.43182ZM855.163 46.6392C851.881 46.6392 849.048 45.9574 846.661 44.5938C844.289 43.2159 842.464 41.2699 841.185 38.7557C839.907 36.2273 839.268 33.2514 839.268 29.8281C839.268 26.4616 839.907 23.5071 841.185 20.9645C842.478 18.4077 844.282 16.419 846.597 14.9986C848.913 13.5639 851.633 12.8466 854.758 12.8466C856.775 12.8466 858.678 13.1733 860.468 13.8267C862.272 14.4659 863.863 15.4602 865.241 16.8097C866.633 18.1591 867.727 19.8778 868.522 21.9659C869.317 24.0398 869.715 26.5114 869.715 29.3807V31.7457H842.89V26.5469H862.322C862.308 25.0696 861.988 23.7557 861.363 22.6051C860.738 21.4403 859.864 20.5241 858.742 19.8565C857.634 19.1889 856.342 18.8551 854.864 18.8551C853.288 18.8551 851.903 19.2386 850.71 20.0057C849.516 20.7585 848.586 21.7528 847.918 22.9886C847.265 24.2102 846.931 25.5526 846.917 27.0156V31.554C846.917 33.4574 847.265 35.0909 847.961 36.4545C848.657 37.804 849.63 38.8409 850.88 39.5653C852.13 40.2756 853.593 40.6307 855.269 40.6307C856.391 40.6307 857.407 40.4744 858.316 40.1619C859.225 39.8352 860.013 39.3594 860.681 38.7344C861.349 38.1094 861.853 37.3352 862.194 36.4119L869.396 37.2216C868.941 39.125 868.075 40.7869 866.796 42.2074C865.532 43.6136 863.913 44.7074 861.938 45.4886C859.964 46.2557 857.705 46.6392 855.163 46.6392ZM891.083 13.2727V19.2386H872.269V13.2727H891.083ZM876.914 5.43182H884.627V36.1562C884.627 37.1932 884.783 37.9886 885.096 38.5426C885.422 39.0824 885.848 39.4517 886.374 39.6506C886.9 39.8494 887.482 39.9489 888.121 39.9489C888.604 39.9489 889.044 39.9134 889.442 39.8423C889.854 39.7713 890.167 39.7074 890.38 39.6506L891.679 45.6804C891.267 45.8224 890.678 45.9787 889.911 46.1491C889.158 46.3196 888.235 46.419 887.141 46.4474C885.209 46.5043 883.469 46.2131 881.921 45.5739C880.373 44.9205 879.144 43.9119 878.235 42.5483C877.34 41.1847 876.9 39.4801 876.914 37.4347V5.43182ZM916.893 32.2358V13.2727H924.606V46H917.127V40.1832H916.786C916.048 42.0156 914.833 43.5142 913.143 44.679C911.467 45.8437 909.4 46.4261 906.942 46.4261C904.798 46.4261 902.901 45.9503 901.254 44.9986C899.62 44.0327 898.342 42.6335 897.418 40.8011C896.495 38.9545 896.033 36.7244 896.033 34.1108V13.2727H903.746V32.9176C903.746 34.9915 904.315 36.6392 905.451 37.8608C906.587 39.0824 908.079 39.6932 909.925 39.6932C911.062 39.6932 912.163 39.4162 913.228 38.8622C914.293 38.3082 915.167 37.4844 915.849 36.3906C916.545 35.2827 916.893 33.8977 916.893 32.2358ZM931.037 46V13.2727H938.516V18.7273H938.857C939.453 16.8381 940.476 15.3821 941.925 14.3594C943.388 13.3224 945.057 12.804 946.932 12.804C947.358 12.804 947.834 12.8253 948.36 12.8679C948.9 12.8963 949.347 12.946 949.702 13.017V20.1122C949.375 19.9986 948.857 19.8991 948.147 19.8139C947.451 19.7145 946.776 19.6648 946.123 19.6648C944.716 19.6648 943.452 19.9702 942.33 20.581C941.222 21.1776 940.348 22.0085 939.709 23.0739C939.07 24.1392 938.75 25.3679 938.75 26.7599V46H931.037ZM962.158 46.6605C960.084 46.6605 958.216 46.2912 956.554 45.5526C954.907 44.7997 953.6 43.6918 952.634 42.2287C951.682 40.7656 951.206 38.9616 951.206 36.8168C951.206 34.9702 951.547 33.4432 952.229 32.2358C952.911 31.0284 953.841 30.0625 955.02 29.3381C956.199 28.6136 957.527 28.0668 959.005 27.6974C960.496 27.3139 962.037 27.0369 963.628 26.8665C965.546 26.6676 967.101 26.4901 968.294 26.3338C969.488 26.1634 970.354 25.9077 970.894 25.5668C971.448 25.2116 971.725 24.6648 971.725 23.9261V23.7983C971.725 22.1932 971.249 20.9503 970.297 20.0696C969.346 19.1889 967.975 18.7486 966.185 18.7486C964.296 18.7486 962.797 19.1605 961.689 19.9844C960.596 20.8082 959.857 21.7812 959.473 22.9034L952.272 21.8807C952.84 19.892 953.777 18.2301 955.084 16.8949C956.391 15.5455 957.989 14.5369 959.878 13.8693C961.767 13.1875 963.855 12.8466 966.142 12.8466C967.719 12.8466 969.289 13.0313 970.851 13.4006C972.414 13.7699 973.841 14.3807 975.134 15.233C976.426 16.071 977.463 17.2145 978.245 18.6634C979.04 20.1122 979.438 21.9233 979.438 24.0966V46H972.023V41.5043H971.767C971.299 42.4134 970.638 43.2656 969.786 44.0611C968.948 44.8423 967.89 45.4744 966.611 45.9574C965.347 46.4261 963.863 46.6605 962.158 46.6605ZM964.161 40.9929C965.709 40.9929 967.051 40.6875 968.188 40.0767C969.324 39.4517 970.198 38.6278 970.809 37.6051C971.434 36.5824 971.746 35.4673 971.746 34.2599V30.4034C971.505 30.6023 971.093 30.7869 970.51 30.9574C969.942 31.1278 969.303 31.277 968.593 31.4048C967.882 31.5327 967.179 31.6463 966.483 31.7457C965.787 31.8452 965.184 31.9304 964.672 32.0014C963.522 32.1577 962.492 32.4134 961.583 32.7685C960.674 33.1236 959.956 33.6207 959.431 34.2599C958.905 34.8849 958.642 35.6946 958.642 36.6889C958.642 38.1094 959.161 39.1818 960.198 39.9062C961.235 40.6307 962.556 40.9929 964.161 40.9929Z" fill="white"/>
</svg>
